<?xml version="1.0" encoding="UTF-8" standalone="no"?>
<svg
   viewBox="45 235 206.34047 233.69637"
   version="1.1"
   id="svg345"
   sodipodi:docname="M-white.svg"
   width="206.34047"
   height="233.69637"
   inkscape:version="1.2.2 (b0a8486541, 2022-12-01)"
   xmlns:inkscape="http://www.inkscape.org/namespaces/inkscape"
   xmlns:sodipodi="http://sodipodi.sourceforge.net/DTD/sodipodi-0.dtd"
   xmlns="http://www.w3.org/2000/svg"
   xmlns:svg="http://www.w3.org/2000/svg">
  <defs
     id="defs349" />
  <sodipodi:namedview
     id="namedview347"
     pagecolor="#ffffff"
     bordercolor="#000000"
     borderopacity="0.25"
     inkscape:showpageshadow="2"
     inkscape:pageopacity="0.0"
     inkscape:pagecheckerboard="true"
     inkscape:deskcolor="#d1d1d1"
     showgrid="false"
     inkscape:zoom="4.275"
     inkscape:cx="96.725146"
     inkscape:cy="114.8538"
     inkscape:window-width="2560"
     inkscape:window-height="1371"
     inkscape:window-x="1920"
     inkscape:window-y="32"
     inkscape:window-maximized="1"
     inkscape:current-layer="svg345" />
  <path
     style="fill:none;stroke:#ffffff;stroke-width:11.5328;stroke-linecap:butt;stroke-linejoin:miter;stroke-miterlimit:4;stroke-dasharray:none;stroke-opacity:1"
     d="m 75.182106,468.48371 c -2.655074,-71.94385 -16.020852,-152.57757 -6.264797,-222.7484 13.889263,10.91351 35.193331,42.94426 41.765331,55.6871 23.47422,-3.82679 30.70211,-11.84291 57.77536,-4.87263 9.02177,-16.8157 29.49549,-37.24584 40.37315,-46.63794 12.50457,68.33897 5.07831,135.04781 0,206.73836"
     id="path331" />
  <path
     style="fill:none;stroke:#ffffff;stroke-width:4.23222;stroke-linecap:butt;stroke-linejoin:miter;stroke-miterlimit:8;stroke-dasharray:none;stroke-opacity:1"
     d="m 116.25134,391.21786 c -20.578524,-1.07233 -45.149994,-1.11967 -67.520608,1.39218"
     id="path333" />
  <path
     style="fill:none;stroke:#ffffff;stroke-width:4.23222;stroke-linecap:butt;stroke-linejoin:miter;stroke-miterlimit:8;stroke-dasharray:none;stroke-opacity:1"
     d="m 114.85917,405.13963 c -52.462929,2.2164 -68.813877,8.9997 -68.912794,9.04916"
     id="path335" />
  <path
     style="fill:none;stroke:#ffffff;stroke-width:4.23222;stroke-linecap:butt;stroke-linejoin:miter;stroke-miterlimit:8;stroke-dasharray:none;stroke-opacity:1"
     d="m 113.46699,419.7575 c -20.415738,-0.45547 -38.377336,6.45149 -57.079284,11.13741"
     id="path337" />
  <path
     style="fill:none;stroke:#ffffff;stroke-width:4.23222;stroke-linecap:butt;stroke-linejoin:miter;stroke-miterlimit:8;stroke-dasharray:none;stroke-opacity:1"
     d="m 164.28147,389.82568 c 46.0191,0.87663 86.31501,16.01004 86.31501,16.01004"
     id="path339" />
  <path
     style="fill:none;stroke:#ffffff;stroke-width:4.23222;stroke-linecap:butt;stroke-linejoin:miter;stroke-miterlimit:8;stroke-dasharray:none;stroke-opacity:1"
     d="m 163.58538,405.13963 c 27.92167,-2.12379 80.27372,11.98111 80.27391,11.98115"
     id="path341"
     sodipodi:nodetypes="cc" />
  <path
     style="fill:none;stroke:#ffffff;stroke-width:4.23222;stroke-linecap:butt;stroke-linejoin:miter;stroke-miterlimit:8;stroke-dasharray:none;stroke-opacity:1"
     d="m 163.58538,418.36532 c 14.76087,-0.85661 42.62672,4.83927 75.87367,13.22569"
     id="path343" />
</svg>
