<svg
   xmlns="http://www.w3.org/2000/svg"
   viewBox="45 235 210 240"
   >
    <path
       style="fill:none;stroke:#000000;stroke-width:11.53279781;stroke-linecap:butt;stroke-linejoin:miter;stroke-miterlimit:4;stroke-opacity:1;stroke-dasharray:none"
       d="M 76.787927,473.73638 C 74.132853,401.79253 60.767075,321.15881 70.52313,250.98798 c 13.889263,10.91351 35.19333,42.94426 41.76533,55.6871 23.47422,-3.82679 30.70211,-11.84291 57.77536,-4.87263 9.02177,-16.8157 29.49549,-37.24584 40.37315,-46.63794 12.50457,68.33897 5.07831,135.04781 0,206.73836"
       />
    <path
       style="fill:none;stroke:#000000;stroke-width:4.2322197;stroke-linecap:butt;stroke-linejoin:miter;stroke-miterlimit:8;stroke-opacity:1;stroke-dasharray:none"
       d="M 117.85716,396.47053 C 97.278637,395.3982 72.707167,395.35086 50.336553,397.86271"
       />
    <path
       style="fill:none;stroke:#000000;stroke-width:4.2322197;stroke-linecap:butt;stroke-linejoin:miter;stroke-miterlimit:8;stroke-opacity:1;stroke-dasharray:none"
       d="m 116.46499,410.3923 c -52.462928,2.2164 -68.813876,8.9997 -68.912793,9.04916"
       />
    <path
       style="fill:none;stroke:#000000;stroke-width:4.2322197;stroke-linecap:butt;stroke-linejoin:miter;stroke-miterlimit:8;stroke-opacity:1;stroke-dasharray:none"
       d="M 115.07281,425.01017 C 94.657073,424.5547 76.695475,431.46166 57.993527,436.14758"
       />
    <path
       style="fill:none;stroke:#000000;stroke-width:4.2322197;stroke-linecap:butt;stroke-linejoin:miter;stroke-miterlimit:8;stroke-opacity:1;stroke-dasharray:none"
       d="m 165.88729,395.07835 c 46.0191,0.87663 86.31501,16.01004 86.31501,16.01004"
       />
    <path
       style="fill:none;stroke:#000000;stroke-width:4.2322197;stroke-linecap:butt;stroke-linejoin:miter;stroke-miterlimit:8;stroke-opacity:1;stroke-dasharray:none"
       d="m 165.1912,410.3923 c 27.92167,-2.12379 80.05002,9.7452 80.05021,9.74524"
       />
    <path
       style="fill:none;stroke:#000000;stroke-width:4.2322197;stroke-linecap:butt;stroke-linejoin:miter;stroke-miterlimit:8;stroke-opacity:1;stroke-dasharray:none"
       d="m 165.1912,423.61799 c 14.76087,-0.85661 42.62672,4.83927 75.87367,13.22569"
       />
</svg>
