<?xml version="1.0" encoding="UTF-8" standalone="no"?>
<svg
   xmlns:dc="http://purl.org/dc/elements/1.1/"
   xmlns:cc="http://creativecommons.org/ns#"
   xmlns:rdf="http://www.w3.org/1999/02/22-rdf-syntax-ns#"
   xmlns:svg="http://www.w3.org/2000/svg"
   xmlns="http://www.w3.org/2000/svg"
   xmlns:sodipodi="http://sodipodi.sourceforge.net/DTD/sodipodi-0.dtd"
   xmlns:inkscape="http://www.inkscape.org/namespaces/inkscape"
   widthout="476.26605"
   heightout="244.2812"
   id="svg3836"
   viewBox="0 0 476 244"
   version="1.1"
   inkscape:version="0.91 r13725"
   sodipodi:docname="Miaou.svg">
  <sodipodi:namedview
     pagecolor="#ffffff"
     bordercolor="#666666"
     borderopacity="1"
     objecttolerance="10"
     gridtolerance="10"
     guidetolerance="10"
     inkscape:pageopacity="0"
     inkscape:pageshadow="2"
     inkscape:window-width="1875"
     inkscape:window-height="1056"
     id="namedview19"
     showgrid="false"
     inkscape:zoom="2.72"
     inkscape:cx="238"
     inkscape:cy="122"
     inkscape:window-x="45"
     inkscape:window-y="24"
     inkscape:window-maximized="1"
     inkscape:current-layer="layer1" />
  <defs
     id="defs3838" />
  <metadata
     id="metadata3841">
    <rdf:RDF>
      <cc:Work
         rdf:about="">
        <dc:format>image/svg+xml</dc:format>
        <dc:type
           rdf:resource="http://purl.org/dc/dcmitype/StillImage" />
        <dc:title />
      </cc:Work>
    </rdf:RDF>
  </metadata>
  <g
     id="layer1"
     transform="translate(-40.436087,-235.22158)">
    <path
       style="fill:none;stroke:#000000;stroke-width:11.53279781;stroke-linecap:butt;stroke-linejoin:miter;stroke-miterlimit:4;stroke-opacity:1;stroke-dasharray:none"
       d="M 76.787927,473.73638 C 74.132853,401.79253 60.767075,321.15881 70.52313,250.98798 c 13.889263,10.91351 35.19333,42.94426 41.76533,55.6871 23.47422,-3.82679 30.70211,-11.84291 57.77536,-4.87263 9.02177,-16.8157 29.49549,-37.24584 40.37315,-46.63794 12.50457,68.33897 5.07831,135.04781 0,206.73836"
       id="path3755" />
    <path
       style="fill:none;stroke:#000000;stroke-width:4.2322197;stroke-linecap:butt;stroke-linejoin:miter;stroke-miterlimit:8;stroke-opacity:1;stroke-dasharray:none"
       d="M 117.85716,396.47053 C 97.278637,395.3982 72.707167,395.35086 50.336553,397.86271"
       id="path3757" />
    <path
       style="fill:none;stroke:#000000;stroke-width:4.2322197;stroke-linecap:butt;stroke-linejoin:miter;stroke-miterlimit:8;stroke-opacity:1;stroke-dasharray:none"
       d="m 116.46499,410.3923 c -52.462928,2.2164 -68.813876,8.9997 -68.912793,9.04916"
       id="path3759" />
    <path
       style="fill:none;stroke:#000000;stroke-width:4.2322197;stroke-linecap:butt;stroke-linejoin:miter;stroke-miterlimit:8;stroke-opacity:1;stroke-dasharray:none"
       d="M 115.07281,425.01017 C 94.657073,424.5547 76.695475,431.46166 57.993527,436.14758"
       id="path3761" />
    <path
       style="fill:none;stroke:#000000;stroke-width:4.2322197;stroke-linecap:butt;stroke-linejoin:miter;stroke-miterlimit:8;stroke-opacity:1;stroke-dasharray:none"
       d="m 165.88729,395.07835 c 46.0191,0.87663 86.31501,16.01004 86.31501,16.01004"
       id="path3763" />
    <path
       style="fill:none;stroke:#000000;stroke-width:4.2322197;stroke-linecap:butt;stroke-linejoin:miter;stroke-miterlimit:8;stroke-opacity:1;stroke-dasharray:none"
       d="m 165.1912,410.3923 c 27.92167,-2.12379 80.05002,9.7452 80.05021,9.74524"
       id="path3765" />
    <path
       style="fill:none;stroke:#000000;stroke-width:4.2322197;stroke-linecap:butt;stroke-linejoin:miter;stroke-miterlimit:8;stroke-opacity:1;stroke-dasharray:none"
       d="m 165.1912,423.61799 c 14.76087,-0.85661 42.62672,4.83927 75.87367,13.22569"
       id="path3767" />
    <path
       style="fill:none;stroke:#000000;stroke-width:7;stroke-linecap:butt;stroke-linejoin:miter;stroke-miterlimit:4;stroke-opacity:1;stroke-dasharray:none"
       d="m 271.42778,459.67418 c 3.53422,-30.69397 7.06843,-57.97359 10.60265,-77.39933"
       id="path3863" />
    <path
       style="fill:none;stroke:#000000;stroke-width:7;stroke-linecap:butt;stroke-linejoin:miter;stroke-miterlimit:4;stroke-opacity:1;stroke-dasharray:none"
       d="m 284.15096,368.49141 2.12053,-7.42186"
       id="path3865" />
    <path
       style="fill:none;stroke:#000000;stroke-width:7;stroke-linecap:butt;stroke-linejoin:miter;stroke-miterlimit:4;stroke-opacity:1;stroke-dasharray:none"
       d="m 310.65758,458.61392 c 6.07782,-39.80722 6.6865,-80.52597 28.62714,-117.68939 21.54107,72.87559 21.9186,89.31508 27.56689,119.80991"
       id="path3867" />
    <path
       style="fill:none;stroke:#000000;stroke-width:7;stroke-linecap:butt;stroke-linejoin:miter;stroke-miterlimit:4;stroke-opacity:1;stroke-dasharray:none"
       d="m 320.19996,416.20333 36.049,-10e-6"
       id="path3869" />
    <path
       style="fill:none;stroke:#000000;stroke-width:8;stroke-miterlimit:8;stroke-opacity:1;stroke-dasharray:none"
       id="path3871"
       d="m 455.91386,418.85397 c 0,21.37324 -10.91802,38.69967 -24.38609,38.69967 -13.46806,0 -24.38609,-17.32643 -24.38609,-38.69967 0,-21.37323 10.91803,-38.69966 24.38609,-38.69966 13.46807,0 24.38609,17.32643 24.38609,38.69966 z"
       transform="translate(-15.903971,-2.2410591)" />
    <path
       style="fill:none;stroke:#000000;stroke-width:7;stroke-linecap:butt;stroke-linejoin:miter;stroke-miterlimit:4;stroke-dasharray:none;stroke-opacity:1"
       d="m 460.15491,376.97353 c 1.58156,46.11367 18.68902,107.8616 40.61504,67.48929 10.9054,-25.0136 6.95245,-53.84264 6.03661,-74.91115"
       id="path5815"
       inkscape:connector-curvature="0"
       sodipodi:nodetypes="ccc" />
  </g>
</svg>
