<svg xmlns="http://www.w3.org/2000/svg" viewBox="0 0 476 244"><g fill="none" stroke="#000"><path d="M36.352 238.515C33.697 166.57 20.33 85.937 30.087 15.766 43.977 26.68 65.28 58.711 71.852 71.454c23.475-3.827 30.702-11.843 57.776-4.873C138.65 49.765 159.123 29.335 170 19.943c12.504 68.339 5.078 135.048 0 206.738" stroke-width="11.533"/><path d="M77.421 161.249c-20.578-1.072-45.15-1.12-67.52 1.392M76.029 175.17c-52.463 2.217-68.814 9-68.913 9.05M74.637 189.789c-20.416-.456-38.378 6.451-57.08 11.137M125.451 159.857c46.02.876 86.315 16.01 86.315 16.01M124.755 175.17c27.922-2.123 80.05 9.746 80.05 9.746M124.755 188.396c14.761-.856 42.627 4.84 75.874 13.226" stroke-width="4.232" stroke-miterlimit="8"/><path d="M230.992 224.453c3.534-30.694 7.068-57.974 10.602-77.4M243.715 133.27l2.12-7.422M270.221 223.392c6.078-39.807 6.687-80.526 28.628-117.689 21.54 72.876 21.918 89.315 27.567 119.81M279.764 180.982h36.049" stroke-width="7"/><path d="M399.574 181.391c0 21.374-10.918 38.7-24.386 38.7s-24.386-17.326-24.386-38.7c0-21.373 10.918-38.7 24.386-38.7s24.386 17.327 24.386 38.7z" stroke-width="8" stroke-miterlimit="8"/><path d="M419.719 141.752c1.581 46.114 18.689 107.862 40.615 67.49 10.905-25.014 6.952-53.843 6.036-74.912" stroke-width="7"/></g></svg>